<?xml version="1.0" standalone="no"?>
<!DOCTYPE svg PUBLIC "-//W3C//DTD SVG 20010904//EN"
 "http://www.w3.org/TR/2001/REC-SVG-20010904/DTD/svg10.dtd">
<svg version="1.0" xmlns="http://www.w3.org/2000/svg"
 width="260.000000pt" height="260.000000pt" viewBox="0 0 260.000000 260.000000"
 preserveAspectRatio="xMidYMid meet">
<metadata>
Created by potrace 1.11, written by Peter Selinger 2001-2013
</metadata>
<g transform="translate(0.000000,260.000000) scale(0.100000,-0.100000)"
fill="#000000" stroke="none">
<path d="M1105 2484 c-88 -16 -200 -47 -255 -71 -70 -31 -182 -88 -205 -105
-70 -52 -168 -132 -197 -164 -85 -91 -125 -140 -140 -171 -6 -13 -15 -23 -20
-23 -4 0 -8 -6 -8 -14 0 -8 -6 -21 -13 -28 -12 -13 -77 -142 -77 -154 0 -3 -6
-20 -14 -37 -23 -50 -47 -141 -61 -235 -14 -86 -13 -311 0 -381 29 -149 78
-280 153 -409 62 -106 81 -130 182 -233 166 -168 341 -268 573 -326 140 -35
364 -39 522 -8 44 9 137 35 160 45 11 5 45 19 75 31 133 55 277 157 391 277
74 78 169 208 169 231 0 6 3 11 8 11 4 0 13 15 21 33 8 17 24 55 37 82 23 52
60 169 69 220 20 113 24 176 21 297 -3 76 -7 142 -11 147 -3 6 -8 26 -10 44
-13 103 -98 303 -182 431 -60 91 -228 258 -318 318 -128 84 -323 168 -425 182
-19 3 -46 8 -60 11 -53 14 -305 13 -385 -1z m390 -536 c-8 -170 -12 -230 -19
-363 -3 -55 -8 -145 -11 -200 -3 -55 -7 -127 -10 -160 -2 -33 -6 -126 -10
-205 -4 -79 -8 -147 -10 -150 -2 -4 -74 -7 -160 -7 l-155 -1 -1 36 c-1 21 -2
51 -4 67 -1 17 -5 95 -9 175 -4 80 -9 168 -11 195 -2 28 -6 106 -10 175 -3 69
-8 154 -10 190 -15 272 -19 352 -16 378 1 9 53 12 222 12 l221 0 -7 -142z
m-25 -1323 l0 -165 -190 0 c-145 0 -190 3 -191 13 -1 13 0 257 0 294 1 22 2
22 191 22 l190 0 0 -164z"/>
</g>
</svg>
